<svg xmlns="http://www.w3.org/2000/svg" viewBox="0 0 146.38 52.13"><defs><style>.cls-1{fill:#001d26;}.cls-2{fill:#d9f5ff;}.cls-3{fill:#26c9ff;}.cls-4{fill:none;}</style></defs><g id="Layer_2" data-name="Layer 2"><g id="Layer_1-2" data-name="Layer 1"><rect class="cls-1" width="146.38" height="52.13" rx="10.28"/><path class="cls-2" d="M50.56,26.88c-2.17,0-3.73.6-4.7,1.8a7.73,7.73,0,0,0-1.44,4.94,9.79,9.79,0,0,0,.36,2.75,5.78,5.78,0,0,0,1.07,2.13,4.82,4.82,0,0,0,1.79,1.39,5.9,5.9,0,0,0,2.5.49c.52,0,1,0,1.33,0a6.42,6.42,0,0,0,1-.12V33.05h4.65V43.27a17.89,17.89,0,0,1-2.69.7,23.34,23.34,0,0,1-4.56.38,11.73,11.73,0,0,1-4.21-.72,8.79,8.79,0,0,1-3.24-2.09,9.35,9.35,0,0,1-2.07-3.36,13.22,13.22,0,0,1-.73-4.56,12.33,12.33,0,0,1,.8-4.59,10,10,0,0,1,2.21-3.39,9.36,9.36,0,0,1,3.29-2.1,11.3,11.3,0,0,1,4-.71,16.19,16.19,0,0,1,2.64.19,17,17,0,0,1,2,.45A9.78,9.78,0,0,1,56,24c.37.18.63.32.79.42l-1.34,3.72a12.33,12.33,0,0,0-2.19-.88A9.33,9.33,0,0,0,50.56,26.88Z"/><path class="cls-2" d="M61.41,44V23.3h14v3.91h-9.3v4.05h8.25v3.82H66.06v5H76V44Z"/><path class="cls-2" d="M93.33,44C92,41.59,90.56,39.26,89,37a70.63,70.63,0,0,0-5-6.52V44H79.47V23.3h3.78c.66.66,1.39,1.46,2.18,2.42s1.6,2,2.43,3.05S89.5,31,90.32,32.14s1.58,2.28,2.29,3.35V23.3h4.62V44Z"/><path class="cls-2" d="M111.42,44.38q-5,0-7.67-2.81c-1.76-1.86-2.64-4.52-2.64-8a12.39,12.39,0,0,1,.8-4.58,9.91,9.91,0,0,1,2.21-3.4,9.22,9.22,0,0,1,3.34-2.1,12,12,0,0,1,4.2-.71A13.35,13.35,0,0,1,114,23a15.37,15.37,0,0,1,1.88.45,8.76,8.76,0,0,1,1.34.52q.54.27.78.42l-1.34,3.75a11.42,11.42,0,0,0-2.22-.86,10.6,10.6,0,0,0-2.88-.36,6.26,6.26,0,0,0-2.1.36,4.83,4.83,0,0,0-1.82,1.14,5.72,5.72,0,0,0-1.27,2,8.71,8.71,0,0,0-.47,3,10.72,10.72,0,0,0,.31,2.66,5.69,5.69,0,0,0,1,2.13,4.87,4.87,0,0,0,1.84,1.42,6.44,6.44,0,0,0,2.74.52,12.53,12.53,0,0,0,1.82-.12,14,14,0,0,0,1.43-.28,7.85,7.85,0,0,0,1.1-.37l.86-.39,1.29,3.73a11.29,11.29,0,0,1-2.78,1.07A16,16,0,0,1,111.42,44.38Z"/><path class="cls-2" d="M129.6,31.77c.83-1.4,1.63-2.81,2.38-4.22s1.46-2.82,2.09-4.25h5.13c-1.13,2.23-2.31,4.38-3.52,6.47s-2.49,4.18-3.84,6.29V44h-4.65V36.12c-1.35-2.11-2.64-4.21-3.86-6.32s-2.4-4.27-3.53-6.5h5.39q1,2.14,2,4.25C128,29,128.76,30.37,129.6,31.77Z"/><rect class="cls-3" x="9.69" y="16.89" width="1.78" height="1.78" transform="translate(-0.38 0.23) rotate(-1.22)"/><rect class="cls-3" x="11.1" y="15.6" width="1.4" height="1.4" transform="translate(-0.35 0.26) rotate(-1.22)"/><rect class="cls-3" x="13.81" y="13.86" width="0.92" height="0.92" transform="translate(-0.3 0.31) rotate(-1.22)"/><rect class="cls-3" x="10.6" y="14.07" width="1.01" height="1.01" transform="translate(-0.31 0.24) rotate(-1.22)"/><rect class="cls-3" x="8.78" y="15.9" width="1.01" height="1.01" transform="matrix(1, -0.02, 0.02, 1, -0.35, 0.2)"/><rect class="cls-3" x="13.06" y="16.3" width="1.99" height="1.99" transform="translate(-0.37 0.3) rotate(-1.22)"/><rect class="cls-3" x="15.03" y="10.58" width="0.64" height="0.64" transform="translate(-0.23 0.33) rotate(-1.22)"/><rect class="cls-3" x="15.84" y="7.21" width="0.64" height="0.64" transform="translate(-0.16 0.35) rotate(-1.22)"/><rect class="cls-3" x="12.09" y="11.69" width="0.64" height="0.64" transform="translate(-0.25 0.27) rotate(-1.22)"/><rect class="cls-3" x="7.19" y="14.29" width="0.64" height="0.64" transform="translate(-0.31 0.16) rotate(-1.22)"/><rect class="cls-3" x="7.73" y="17.51" width="0.64" height="0.64" transform="translate(-0.38 0.18) rotate(-1.22)"/><rect class="cls-3" x="8.34" y="10.42" width="0.64" height="0.64" transform="translate(-0.23 0.19) rotate(-1.22)"/><rect class="cls-3" x="14.51" y="18.75" width="0.73" height="0.73" transform="translate(-0.4 0.32) rotate(-1.22)"/><rect class="cls-3" x="12.05" y="19.4" width="1.35" height="1.35" transform="matrix(1, -0.02, 0.02, 1, -0.43, 0.28)"/><rect class="cls-3" x="11.47" y="21.3" width="0.62" height="0.62" transform="translate(-0.46 0.26) rotate(-1.22)"/><rect class="cls-3" x="10.72" y="19.44" width="0.69" height="0.69" transform="translate(-0.42 0.24) rotate(-1.22)"/><rect class="cls-3" x="15.44" y="18.09" width="0.38" height="0.38" transform="translate(-0.39 0.34) rotate(-1.22)"/><path class="cls-4" d="M28.5,44.8h1.7a14,14,0,0,0-9.75-13.37l-1.39,1.39A12.33,12.33,0,0,1,28.5,44.8Z"/><path class="cls-2" d="M19.06,32.82l-2.62,2.61-.76.77.48,0a8.63,8.63,0,0,1,8.62,8.63H28.5A12.33,12.33,0,0,0,19.06,32.82Z"/><polygon class="cls-3" points="27.78 13.32 22.23 18.87 16.25 24.85 9.14 31.95 9.14 40.51 16.25 33.4 22.23 27.42 28.28 21.38 30.29 19.36 36.33 13.32 27.78 13.32"/><polygon class="cls-3" points="30.2 44.8 36.24 44.8 36.24 15.57 30.2 21.62 30.2 44.8"/><polygon class="cls-3" points="9.05 44.92 15.1 44.92 15.1 36.69 9.05 42.74 9.05 44.92"/><polygon class="cls-3" points="12.07 23.07 9.05 20.05 9.05 21.04 9.05 29.59 15.1 23.54 15.1 20.05 12.07 23.07"/><path class="cls-2" d="M30.2,44.8h6a20.06,20.06,0,0,0-11.18-18l-.31.31L23.17,28.7l-.75.75-.49.49-1.17,1.18-.31.31A14,14,0,0,1,30.2,44.8Z"/></g></g></svg>